<?xml version="1.0" encoding="utf-8"?>
<!-- Generator: Adobe Illustrator 18.1.1, SVG Export Plug-In . SVG Version: 6.00 Build 0)  -->
<svg version="1.1" id="Layer_1" xmlns="http://www.w3.org/2000/svg" xmlns:xlink="http://www.w3.org/1999/xlink" x="0px" y="0px"
	 width="93px" height="93px" viewBox="0 0 93 93" enable-background="new 0 0 93 93" xml:space="preserve">
<path fill="#CCCCCC" d="M93.4,93.7c-0.1-3.1-0.2-5.5-0.2-10.8c0.2-0.2-32.3-14.2-34.3-16.3c-1.6-1.6-2.5-4.2-2.5-7.6
	c0-1.2,0.6-2.6,1.9-4.2c1.3-1.6,2.2-3.9,2.8-6.9c0.1-1.2,0.8-4.5,1.9-9.9s1.8-8.6,1.9-9.5c0.3-3.1-1-6.5-3.9-10
	c-2.9-3.5-7.6-5.3-14.3-5.3c-6.5,0-11.2,1.7-13.9,5.1c-2.7,3.4-4.1,6.8-4.1,10.2c0.1,1.5,0.8,5.1,2,10.7c1.2,5.7,1.8,8.6,1.8,8.7
	c0.4,3,1.3,5.3,2.7,6.9c1.4,1.6,2,3,2,4.2c0,2.9-0.8,5.4-2.5,7.6C34.4,67.4-0.7,83.3-0.1,83.9c0,3.8,0,7.1,0,10.1L93.4,93.7z"/>
</svg>
